<svg width="56" height="56" viewBox="0 0 56 56" fill="none" xmlns="http://www.w3.org/2000/svg">
<path d="M29.8545 30.4038H26.0727C26.0727 23.7267 28.1789 17.0608 32.8385 12.1815C33.5687 11.2259 34 10.046 34 8.76923C34 5.58296 31.3137 3 28 3C24.6863 3 22 5.58296 22 8.76923C22 10.3412 22.6539 11.7664 23.7144 12.807C19.9664 15.3761 13 22.2626 13 30.8846C13 39.5857 20.0948 43.1084 23.8167 43.8315L10 46.1818V53L46 53V46.1818L31.8556 43.7965C35.6197 42.9999 42.5 39.4532 42.5 30.8846C42.5 25.2741 39.7818 20.2727 36.4727 16.6364C32.8385 19.3636 29.8545 25.7273 29.8545 30.4038Z" fill="#2A2B37"/>
</svg>
