<svg width="56" height="56" viewBox="0 0 56 56" fill="none" xmlns="http://www.w3.org/2000/svg">
<path d="M29.8545 30.4038H26.0727C26.0727 23.7267 28.1789 17.0608 32.8385 12.1815C33.5687 11.2259 34 10.046 34 8.76923C34 5.58296 31.3137 3 28 3C24.6863 3 22 5.58296 22 8.76923C22 10.3412 22.6539 11.7664 23.7144 12.807C19.9664 15.3761 13 22.2626 13 30.8846C13 39.5857 20.0948 43.1084 23.8167 43.8315L10 46.1818V53L46 53V46.1818L31.8556 43.7965C35.6197 42.9999 42.5 39.4532 42.5 30.8846C42.5 25.2741 39.7818 20.2727 36.4727 16.6364C32.8385 19.3636 29.8545 25.7273 29.8545 30.4038Z" fill="white"/>
<path fill-rule="evenodd" clip-rule="evenodd" d="M28 5.27273C25.4418 5.27273 23.4694 7.28575 23.4694 9.64336C23.4694 10.8145 23.9467 11.8863 24.7431 12.6809C24.9818 12.919 25.1036 13.2554 25.0746 13.5966C25.0457 13.9377 24.8691 14.2472 24.594 14.439C22.9307 15.5983 20.5141 17.7636 18.5232 20.6218C16.5325 23.4797 15.0204 26.9522 15.0204 30.7535C15.0204 34.5515 16.5284 37.1728 18.4256 38.9466C20.3531 40.7487 22.6967 41.683 24.2802 41.9959C24.8042 42.0994 25.181 42.575 25.1748 43.1251C25.1687 43.6751 24.7813 44.1416 24.2552 44.2326L12.2041 46.317V50.7273L43.7959 50.7273V46.3184L31.4388 44.1995C30.9156 44.1098 30.5286 43.6485 30.5178 43.1018C30.5069 42.555 30.8753 42.0778 31.3944 41.9661C34.7008 41.2546 40.5102 38.1436 40.5102 30.7535C40.5102 26.1643 38.4904 21.9735 35.8369 18.7327C34.6056 19.9172 33.4539 21.6155 32.5602 23.5208C31.4833 25.8165 30.843 28.2803 30.843 30.2946C30.843 30.9222 30.3496 31.4309 29.741 31.4309H26.1907C25.5821 31.4309 25.0887 30.9222 25.0887 30.2946C25.0887 23.7121 27.1242 17.0654 31.7054 12.1582C32.2285 11.4429 32.5306 10.5762 32.5306 9.64336C32.5306 7.28575 30.5582 5.27273 28 5.27273ZM21.2653 9.64336C21.2653 5.91808 24.3365 3 28 3C31.6635 3 34.7347 5.91808 34.7347 9.64336C34.7347 11.1277 34.2402 12.4962 33.4134 13.5965C33.3886 13.6295 33.3621 13.6611 33.3339 13.6911C29.4537 17.8225 27.5365 23.4098 27.3146 29.1582H28.6902C28.8791 27.0011 29.5778 24.6592 30.576 22.5311C31.751 20.0265 33.4032 17.6856 35.2985 16.2394C35.7507 15.8944 36.3823 15.9559 36.7639 16.3822C39.9902 19.9872 42.7143 25.0235 42.7143 30.7535C42.7143 37.0527 39.2071 40.7331 35.8163 42.6462L45.0787 44.2344C45.6103 44.3255 46 44.7997 46 45.3554V51.8636C46 52.165 45.8839 52.4541 45.6772 52.6672C45.4705 52.8803 45.1902 53 44.898 53L11.102 53C10.4934 53 10 52.4912 10 51.8636V45.3554C10 44.8003 10.3889 44.3265 10.9197 44.2347L19.799 42.6989C18.8291 42.1599 17.8509 41.4771 16.9451 40.6303C14.6386 38.4738 12.8163 35.2611 12.8163 30.7535C12.8163 26.3247 14.5742 22.3954 16.7331 19.296C18.5307 16.7151 20.6432 14.6555 22.3709 13.2919C21.675 12.2488 21.2653 10.9955 21.2653 9.64336Z" fill="#3E3F4F"/>
</svg>
