<svg width="56" height="56" viewBox="0 0 56 56" fill="none" xmlns="http://www.w3.org/2000/svg">
<path fill-rule="evenodd" clip-rule="evenodd" d="M25.4055 3H30.5945L30.7296 7.31034H35.7835V12.4828H30.8918L31.1294 18.3388C31.2242 18.2274 31.3219 18.1182 31.4225 18.0116C36.1472 13.0061 43.1524 10.3424 48.3235 14.6379C53.5125 18.9483 53.5125 28.8621 46.3679 34.5958C42.3207 37.8438 38.6956 40.9749 38.8743 45.5544L46.1437 46.5345V53H9.85632V46.5345L17.1257 45.5544C17.3044 40.9749 13.6793 37.8438 9.6321 34.5958C2.4875 28.8621 2.4875 18.9483 7.67648 14.6379C12.8476 10.3424 19.8528 13.0061 24.5775 18.0116C24.6781 18.1182 24.7758 18.2274 24.8706 18.3388L25.1082 12.4828H20.2165V7.31034H25.2704L25.4055 3ZM20.5175 22.8044C23.6886 27.982 24.1083 34.0345 24.1083 36.6666C22.5188 36.6694 16.527 34.0418 13.3546 29.7281C11.0708 26.6226 10.4753 22.0151 12.433 20.2263C14.3908 18.4375 18.5356 19.5685 20.5175 22.8044ZM35.4825 22.8044C32.3114 27.982 31.8917 34.0345 31.8917 36.6666C33.4812 36.6694 39.473 34.0418 42.6454 29.7281C44.9292 26.6226 45.5248 22.0151 43.567 20.2263C41.6092 18.4375 37.4644 19.5685 35.4825 22.8044Z" fill="#2A2B37"/>
</svg>
