<svg width="56" height="56" viewBox="0 0 56 56" fill="none" xmlns="http://www.w3.org/2000/svg">
<path fill-rule="evenodd" clip-rule="evenodd" d="M25.4055 3H30.5945L30.7296 7.31034H35.7835V12.4828H30.8918L31.1294 18.3388C31.2242 18.2274 31.3219 18.1182 31.4225 18.0116C36.1472 13.0061 43.1524 10.3424 48.3235 14.6379C53.5125 18.9483 53.5125 28.8621 46.3679 34.5958C42.3207 37.8438 38.6956 40.9749 38.8743 45.5544L46.1437 46.5345V53H9.85632V46.5345L17.1257 45.5544C17.3044 40.9749 13.6793 37.8438 9.6321 34.5958C2.4875 28.8621 2.4875 18.9483 7.67648 14.6379C12.8476 10.3424 19.8528 13.0061 24.5775 18.0116C24.6781 18.1182 24.7758 18.2274 24.8706 18.3388L25.1082 12.4828H20.2165V7.31034H25.2704L25.4055 3ZM20.5175 22.8044C23.6886 27.982 24.1083 34.0345 24.1083 36.6666C22.5188 36.6694 16.527 34.0418 13.3546 29.7281C11.0708 26.6226 10.4753 22.0151 12.433 20.2263C14.3908 18.4375 18.5356 19.5685 20.5175 22.8044ZM35.4825 22.8044C32.3114 27.982 31.8917 34.0345 31.8917 36.6666C33.4812 36.6694 39.473 34.0418 42.6454 29.7281C44.9292 26.6226 45.5248 22.0151 43.567 20.2263C41.6092 18.4375 37.4644 19.5685 35.4825 22.8044Z" fill="white"/>
<path fill-rule="evenodd" clip-rule="evenodd" d="M24.4333 4.05309C24.4517 3.46625 24.9344 3 25.5236 3H30.4764C31.0656 3 31.5483 3.46625 31.5667 4.05309L31.6627 7.12294H35.4291C36.0316 7.12294 36.52 7.60959 36.52 8.20989V13.1574C36.52 13.2013 36.5173 13.2446 36.5123 13.2871C37.2951 12.9327 38.0953 12.6474 38.9042 12.4427C42.0378 11.6496 45.3184 12.0711 48.0977 14.3847C53.6752 19.0278 53.4681 29.323 46.2168 35.1549C44.2754 36.7163 42.5402 38.17 41.3011 39.7435C40.2848 41.0341 39.6388 42.3604 39.4947 43.845L45.4642 44.6515C46.0051 44.7246 46.4085 45.1848 46.4085 45.7286V51.913C46.4085 52.5134 45.9201 53 45.3177 53H10.6823C10.0799 53 9.59149 52.5134 9.59149 51.913V45.7286C9.59149 45.1848 9.9949 44.7246 10.5358 44.6515L16.5053 43.845C16.3612 42.3604 15.7152 41.0341 14.6989 39.7435C13.4598 38.17 11.7246 36.7163 9.78319 35.1549L10.4085 34.3829L9.78319 35.1549C2.5319 29.323 2.32478 19.0278 7.90235 14.3847L8.60171 15.2189L7.90235 14.3847C10.6816 12.0711 13.9622 11.6496 17.0958 12.4427C17.9047 12.6474 18.7049 12.9327 19.4877 13.2871C19.4827 13.2446 19.48 13.2013 19.48 13.1574V8.20989C19.48 7.60959 19.9684 7.12294 20.5709 7.12294H24.3373L24.4333 4.05309ZM21.2957 14.2444C22.2495 14.8239 23.1645 15.5005 24.0229 16.2506L24.1041 14.2444H21.2957ZM23.9379 19.1897C21.7887 16.9079 19.1629 15.2087 16.5588 14.5497C13.9879 13.899 11.4575 14.2579 9.30107 16.0531C4.97314 19.6559 4.76602 28.3262 11.1534 33.4632C13.0749 35.0086 15.0012 36.6058 16.4153 38.4015C17.8503 40.224 18.8089 42.3135 18.7108 44.8333C18.6903 45.3608 18.2923 45.7974 17.7674 45.8683L11.7731 46.6782V50.8261H44.2269V46.6782L38.2327 45.8683C37.7077 45.7974 37.3097 45.3608 37.2892 44.8333C37.1911 42.3135 38.1497 40.224 39.5847 38.4015C40.9988 36.6058 42.9251 35.0086 44.8466 33.4632C51.234 28.3262 51.0269 19.6559 46.6989 16.0531C44.5425 14.2579 42.0121 13.899 39.4412 14.5497C36.8371 15.2087 34.2113 16.9079 32.0621 19.1897C31.9794 19.2776 31.8985 19.3682 31.8194 19.4612C31.5289 19.8031 31.0575 19.9324 30.6323 19.7867C30.2071 19.6411 29.9151 19.2503 29.897 18.8026L29.6702 13.2012C29.6582 12.9056 29.7677 12.6179 29.9734 12.4045C30.1791 12.1911 30.4632 12.0705 30.7601 12.0705H34.3383V9.29685H30.6054C30.0161 9.29685 29.5334 8.8306 29.5151 8.24376L29.419 5.17391H26.581L26.4849 8.24376C26.4666 8.8306 25.9839 9.29685 25.3946 9.29685H21.6617V12.0705H25.2399C25.5368 12.0705 25.8209 12.1911 26.0266 12.4045C26.2323 12.6179 26.3418 12.9056 26.3298 13.2012L26.103 18.8026C26.0849 19.2503 25.7929 19.6411 25.3677 19.7867C24.9425 19.9324 24.4711 19.8031 24.1806 19.4612C24.1015 19.3682 24.0207 19.2776 23.9379 19.1898M31.9771 16.2506C32.8355 15.5005 33.7505 14.8239 34.7042 14.2444H31.8959L31.9771 16.2506ZM17.3096 18.9553C19.0173 19.4744 20.7009 20.6833 21.7898 22.465C24.9721 27.672 25.3763 33.7022 25.3763 36.2898C25.3763 36.8893 24.8891 37.3756 24.2874 37.3767C23.6967 37.3778 22.8967 37.1574 22.0822 36.8511C21.2259 36.529 20.2214 36.0603 19.1766 35.4622C17.0987 34.2726 14.7747 32.521 13.1408 30.2946C11.9357 28.6523 11.1798 26.6258 10.9787 24.7519C10.7832 22.9302 11.0918 20.9651 12.4037 19.7639L13.1417 20.5643L12.4037 19.7639C13.7217 18.5571 15.6305 18.4449 17.3096 18.9553ZM16.673 21.0346C15.434 20.658 14.4305 20.8605 13.8798 21.3646C13.323 21.8745 12.9814 22.9684 13.148 24.5208C13.3089 26.0208 13.9272 27.6832 14.9019 29.0114C16.296 30.9111 18.3454 32.4792 20.2634 33.5772C21.2164 34.1228 22.1154 34.5399 22.8527 34.8172C22.9599 34.8576 23.0615 34.8941 23.1574 34.9271C23.0096 32.1253 22.348 27.558 19.9265 23.5957C19.1237 22.2821 17.8834 21.4025 16.673 21.0346ZM39.327 21.0346C38.1166 21.4025 36.8763 22.2821 36.0735 23.5957C33.652 27.558 32.9904 32.1253 32.8426 34.9271C32.9385 34.8941 33.0401 34.8576 33.1473 34.8172C33.8846 34.5399 34.7836 34.1228 35.7366 33.5772C37.6546 32.4792 39.704 30.9111 41.0981 29.0114C42.0728 27.6832 42.6911 26.0208 42.852 24.5208C43.0186 22.9684 42.677 21.8745 42.1202 21.3646C41.5695 20.8605 40.566 20.658 39.327 21.0346ZM38.6904 18.9553C40.3695 18.4449 42.2783 18.5571 43.5963 19.7639C44.9082 20.9651 45.2168 22.9302 45.0213 24.7519C44.8202 26.6258 44.0643 28.6523 42.8592 30.2946C41.2253 32.521 38.9013 34.2726 36.8234 35.4622C35.7786 36.0603 34.7741 36.529 33.9178 36.8511C33.1033 37.1574 32.3033 37.3778 31.7126 37.3767C31.1109 37.3756 30.6237 36.8893 30.6237 36.2898C30.6237 33.7022 31.0279 27.672 34.2102 22.465C35.2991 20.6833 36.9827 19.4744 38.6904 18.9553Z" fill="#3E3F4F"/>
</svg>
