<svg width="56" height="56" viewBox="0 0 56 56" fill="none" xmlns="http://www.w3.org/2000/svg">
<path fill-rule="evenodd" clip-rule="evenodd" d="M33.1658 12.1594L25.0408 3C23.8647 5.1581 22.7245 8.96699 24.3638 11.7166C23.5681 11.7851 22.8078 11.9152 22.2196 12.1433C18.4672 13.5988 14.35 17.3591 12.3263 25.1827C11.7404 27.4481 10.6857 28.5329 9.43229 29.8223C8.24992 31.0386 6.89064 32.4368 5.58093 35.1795C2.88277 40.8299 10.1645 46.4803 15.4742 41.3483C18.4594 38.463 21.0687 37.2719 23.2594 36.2719C26.4125 34.8325 28.6985 33.7891 29.9897 28.6598C30.6041 31.0524 30.3583 36.6988 24.4607 40.1441C18.5631 43.5893 17.3344 50.8467 17.4573 53H51C51 32.5571 48.1997 14.8944 33.1658 12.1594Z" fill="#2A2B37"/>
<ellipse cx="21.3721" cy="21.1814" rx="2.33898" ry="2.27273" fill="white"/>
</svg>
