<svg width="56" height="56" viewBox="0 0 56 56" fill="none" xmlns="http://www.w3.org/2000/svg">
<path fill-rule="evenodd" clip-rule="evenodd" d="M32.9167 12.8482L25.1852 4.08704C24.066 6.15131 22.981 9.79459 24.5409 12.4247C23.7838 12.4902 23.0602 12.6146 22.5005 12.8328C18.9299 14.225 15.012 17.8218 13.0863 25.3052C12.5287 27.4722 11.5252 28.5098 10.3324 29.7432C9.2073 30.9065 7.91384 32.244 6.66755 34.8675C4.10004 40.2722 11.0292 45.6769 16.0818 40.768C18.9224 38.0082 21.4054 36.8689 23.49 35.9123C26.4905 34.5356 28.6657 33.5374 29.8944 28.6312C30.479 30.9197 30.2452 36.3207 24.6331 39.6161C19.0211 42.9116 17.8519 49.8534 17.9688 51.9131H49.8874C49.8874 32.359 47.2227 15.4643 32.9167 12.8482Z" fill="white"/>
<path fill-rule="evenodd" clip-rule="evenodd" d="M25.0604 3.00684C25.4257 2.96664 25.7878 3.10529 26.0279 3.37731L33.5087 11.8544C40.9503 13.3628 45.3275 18.5751 47.8193 25.6764C50.3374 32.853 51 42.1196 51 51.913C51 52.5133 50.5018 53 49.8871 53H17.9686C17.3779 53 16.8901 52.5493 16.8574 51.9732C16.7889 50.7648 17.0879 48.3569 18.1183 45.8263C19.1555 43.279 20.9809 40.4923 24.0595 38.6845C26.1617 37.4501 27.4243 35.8968 28.1465 34.3608C28.1439 34.3633 28.1412 34.3659 28.1385 34.3685C26.9293 35.5354 25.4847 36.198 24.0415 36.86L23.963 36.896C21.9061 37.8398 19.5666 38.9151 16.8664 41.5386C13.9475 44.3745 10.348 44.2838 7.87371 42.5723C5.44537 40.8925 4.12188 37.6432 5.65784 34.4099C6.98024 31.6262 8.37192 30.1871 9.5232 28.9967C10.6946 27.7855 11.5232 26.9197 12.0068 25.0402C14.0037 17.28 18.1294 13.3666 22.0877 11.8232C22.3618 11.7164 22.6569 11.6305 22.9621 11.5613C22.5948 10.3424 22.5869 9.0646 22.7562 7.89187C22.9933 6.24878 23.5924 4.7017 24.2015 3.5783C24.3735 3.26093 24.695 3.04705 25.0604 3.00684ZM25.4952 6.10342C25.259 6.75438 25.0651 7.46829 24.9601 8.19533C24.764 9.5541 24.8927 10.8497 25.5037 11.8797C25.6943 12.2012 25.7037 12.5955 25.5285 12.9253C25.3533 13.255 25.0178 13.4745 24.6389 13.5073C23.9231 13.5692 23.3246 13.6817 22.9129 13.8422C19.7299 15.0832 16.0198 18.3634 14.1654 25.5701C13.537 28.0123 12.367 29.2221 11.1592 30.4709L11.1412 30.4895C10.0423 31.6257 8.84692 32.8618 7.67682 35.3249C6.64528 37.4963 7.50259 39.6517 9.16009 40.7983C10.7717 41.913 13.163 42.0703 15.2967 39.9973C18.2743 37.1045 20.898 35.9006 23.0092 34.9318L23.0166 34.9284C24.5479 34.2258 25.6605 33.7038 26.5743 32.822C27.4586 31.9686 28.2317 30.6948 28.8132 28.3729C28.9348 27.8873 29.3798 27.5454 29.8916 27.5442C30.4035 27.5431 30.8501 27.883 30.974 28.368C31.6414 30.9807 31.3516 36.9391 25.2063 40.5476C22.6729 42.0353 21.1077 44.3672 20.1865 46.6297C19.5273 48.2485 19.2218 49.7734 19.1174 50.8261H48.7714C48.722 41.4882 48.0155 32.9409 45.7138 26.3812C43.3397 19.6151 39.3401 15.1286 32.7117 13.9165C32.4634 13.8711 32.2384 13.7446 32.0735 13.5578L25.4952 6.10342Z" fill="#3E3F4F"/>
<path d="M23.9202 21.4782C23.9202 22.6789 22.9237 23.6521 21.6945 23.6521C20.4652 23.6521 19.4688 22.6789 19.4688 21.4782C19.4688 20.2776 20.4652 19.3043 21.6945 19.3043C22.9237 19.3043 23.9202 20.2776 23.9202 21.4782Z" fill="#3E3F4F"/>
</svg>
