<svg width="56" height="56" viewBox="0 0 56 56" fill="none" xmlns="http://www.w3.org/2000/svg">
<path d="M37.3492 12.5238C37.3492 15.286 36.1576 17.7735 34.2541 19.5131L39.1587 22.9297V29.1905H34.3573C34.5888 32.0925 36.4757 34.9969 38.9172 37.5303C41.5083 40.2188 44.6258 42.3871 46.6961 43.5546L47 43.726V53H9V43.726L9.30392 43.5546C11.3742 42.3871 14.4917 40.2188 17.0828 37.5303C19.5243 34.9969 21.4112 32.0925 21.6427 29.1905H16.8413V22.9297L21.4091 19.7477C19.351 18.0011 18.0476 15.4127 18.0476 12.5238C18.0476 7.26396 22.3684 3 27.6984 3C33.0284 3 37.3492 7.26396 37.3492 12.5238Z" fill="#2A2B37"/>
</svg>
