<svg width="56" height="56" viewBox="0 0 56 56" fill="none" xmlns="http://www.w3.org/2000/svg">
<path d="M37.3492 12.5238C37.3492 15.286 36.1576 17.7735 34.2541 19.5131L39.1587 22.9297V29.1905H34.3573C34.5888 32.0925 36.4757 34.9969 38.9172 37.5303C41.5083 40.2188 44.6258 42.3871 46.6961 43.5546L47 43.726V53H9V43.726L9.30392 43.5546C11.3742 42.3871 14.4917 40.2188 17.0828 37.5303C19.5243 34.9969 21.4112 32.0925 21.6427 29.1905H16.8413V22.9297L21.4091 19.7477C19.351 18.0011 18.0476 15.4127 18.0476 12.5238C18.0476 7.26396 22.3684 3 27.6984 3C33.0284 3 37.3492 7.26396 37.3492 12.5238Z" fill="white"/>
<path fill-rule="evenodd" clip-rule="evenodd" d="M31.8338 19.6768C31.7847 18.906 32.0841 18.155 32.6449 17.6425C34.0658 16.344 34.9237 14.522 34.9237 12.5238C34.9237 8.74601 31.7893 5.5 27.6984 5.5C23.6075 5.5 20.4732 8.74601 20.4732 12.5238C20.4732 14.6125 21.4113 16.5112 22.9509 17.8177C23.5415 18.319 23.8681 19.0781 23.8319 19.8658C23.7958 20.6535 23.4012 21.3775 22.7673 21.819L19.2668 24.2575V26.6905H21.6427C22.3206 26.6905 22.9675 26.9828 23.4267 27.4967C23.886 28.0106 24.1157 28.6991 24.0601 29.3954C23.757 33.1938 21.3675 36.6318 18.8036 39.2921C16.3921 41.7943 13.5841 43.8574 11.4255 45.1831V50.5H44.5745V45.1831C42.4159 43.8574 39.6079 41.7943 37.1964 39.2921C34.6325 36.6318 32.243 33.1938 31.9399 29.3954C31.8843 28.6991 32.114 28.0106 32.5733 27.4967C33.0325 26.9828 33.6794 26.6905 34.3573 26.6905H36.7332V24.2575L32.8959 21.5844C32.2749 21.1519 31.8828 20.4477 31.8338 19.6768ZM39.1587 22.9297V29.1905H34.3573C34.424 30.0266 34.6281 30.8629 34.9433 31.6905C35.7221 33.7353 37.1791 35.7268 38.9172 37.5303C41.5083 40.2188 44.6258 42.3871 46.6961 43.5546L47 43.726V53H9V43.726L9.30392 43.5546C11.3742 42.3871 14.4917 40.2188 17.0828 37.5303C18.8209 35.7268 20.2779 33.7353 21.0567 31.6905C21.3719 30.8629 21.576 30.0266 21.6427 29.1905H16.8413V22.9297L21.4091 19.7477C20.7719 19.207 20.207 18.5855 19.7308 17.8994C18.6689 16.3695 18.0476 14.5183 18.0476 12.5238C18.0476 7.26396 22.3684 3 27.6984 3C33.0284 3 37.3492 7.26396 37.3492 12.5238C37.3492 14.3952 36.8023 16.1405 35.8575 17.6126C35.4078 18.3133 34.868 18.9521 34.2541 19.5131L39.1587 22.9297Z" fill="#3E3F4F"/>
</svg>
