<svg width="56" height="56" viewBox="0 0 56 56" fill="none" xmlns="http://www.w3.org/2000/svg">
<path d="M21.9569 11.4809C23.5293 10.8482 24.6452 9.25337 24.6452 7.38596C24.6452 4.96366 22.7676 3 20.4516 3C18.1356 3 16.2581 4.96366 16.2581 7.38596C16.2581 9.62443 17.8614 11.4712 19.9325 11.7387L18.0624 27.5614L9.04701 19.372C9.87134 18.5711 10.3871 17.4275 10.3871 16.1579C10.3871 13.7356 8.50958 11.7719 6.19355 11.7719C3.87752 11.7719 2 13.7356 2 16.1579C2 18.5802 3.87752 20.5439 6.19355 20.5439C6.60125 20.5439 6.99537 20.483 7.36805 20.3695L12.0645 37.2105L16.9212 45.5224L12.0645 46.421V53L44 53V46.421L39.081 45.5187L43.9355 37.2105L48.632 20.3695C49.0046 20.483 49.3987 20.5439 49.8064 20.5439C52.1225 20.5439 54 18.5802 54 16.1579C54 13.7356 52.1225 11.7719 49.8064 11.7719C47.4904 11.7719 45.6129 13.7356 45.6129 16.1579C45.6129 17.4275 46.1287 18.5711 46.953 19.372L37.9376 27.5614L36.0675 11.7387C38.1386 11.4712 39.7419 9.62443 39.7419 7.38596C39.7419 4.96366 37.8644 3 35.5484 3C33.2324 3 31.3548 4.96366 31.3548 7.38596C31.3548 9.25337 32.4707 10.8482 34.0431 11.4809L28 25.807L21.9569 11.4809Z" fill="#2A2B37"/>
</svg>
