<svg width="56" height="56" viewBox="0 0 56 56" fill="none" xmlns="http://www.w3.org/2000/svg">
<path d="M21.9569 11.4809C23.5293 10.8482 24.6452 9.25337 24.6452 7.38596C24.6452 4.96366 22.7676 3 20.4516 3C18.1356 3 16.2581 4.96366 16.2581 7.38596C16.2581 9.62443 17.8614 11.4712 19.9325 11.7387L18.0624 27.5614L9.04701 19.372C9.87134 18.5711 10.3871 17.4275 10.3871 16.1579C10.3871 13.7356 8.50958 11.7719 6.19355 11.7719C3.87752 11.7719 2 13.7356 2 16.1579C2 18.5802 3.87752 20.5439 6.19355 20.5439C6.60125 20.5439 6.99537 20.483 7.36805 20.3695L12.0645 37.2105L16.9212 45.5224L12.0645 46.421V53L44 53V46.421L39.081 45.5187L43.9355 37.2105L48.632 20.3695C49.0046 20.483 49.3987 20.5439 49.8064 20.5439C52.1225 20.5439 54 18.5802 54 16.1579C54 13.7356 52.1225 11.7719 49.8064 11.7719C47.4904 11.7719 45.6129 13.7356 45.6129 16.1579C45.6129 17.4275 46.1287 18.5711 46.953 19.372L37.9376 27.5614L36.0675 11.7387C38.1386 11.4712 39.7419 9.62443 39.7419 7.38596C39.7419 4.96366 37.8644 3 35.5484 3C33.2324 3 31.3548 4.96366 31.3548 7.38596C31.3548 9.25337 32.4707 10.8482 34.0431 11.4809L28 25.807L21.9569 11.4809Z" fill="white"/>
<path fill-rule="evenodd" clip-rule="evenodd" d="M20.6997 9.60433C20.8359 9.50943 20.9831 9.42951 21.139 9.36676C21.8633 9.07534 22.4166 8.31673 22.4166 7.38596C22.4166 6.16443 21.4841 5.27273 20.4516 5.27273C19.4191 5.27273 18.4866 6.16443 18.4866 7.38596C18.4866 8.50989 19.2842 9.36408 20.2124 9.48393C20.3823 9.50587 20.5454 9.54678 20.6997 9.60433ZM19.9325 11.7387C19.8677 11.7303 19.8034 11.7204 19.7396 11.709C17.7627 11.3553 16.2581 9.55443 16.2581 7.38596C16.2581 4.96366 18.1356 3 20.4516 3C22.7676 3 24.6452 4.96366 24.6452 7.38596C24.6452 9.16107 23.6369 10.6899 22.1867 11.3801C22.1702 11.3879 22.1538 11.3956 22.1372 11.4032C22.0778 11.4305 22.0177 11.4564 21.9569 11.4809L28 25.807L34.0431 11.4809C33.9823 11.4564 33.9222 11.4305 33.8628 11.4032C33.8462 11.3956 33.8298 11.3879 33.8134 11.3801C32.3631 10.6899 31.3548 9.16108 31.3548 7.38596C31.3548 4.96366 33.2324 3 35.5484 3C37.8644 3 39.7419 4.96366 39.7419 7.38596C39.7419 9.55443 38.2373 11.3553 36.2604 11.709C36.1966 11.7204 36.1323 11.7303 36.0675 11.7387L37.9376 27.5614L46.953 19.372C46.8819 19.3029 46.8132 19.2313 46.7468 19.1573C46.6555 19.0555 46.5688 18.9491 46.487 18.8384C45.939 18.0972 45.6129 17.1674 45.6129 16.1579C45.6129 13.7356 47.4904 11.7719 49.8064 11.7719C52.1225 11.7719 54 13.7356 54 16.1579C54 18.5802 52.1225 20.5439 49.8064 20.5439C49.5014 20.5439 49.204 20.5098 48.9175 20.4451C48.8561 20.4313 48.7952 20.416 48.7349 20.3994C48.7004 20.3899 48.6661 20.3799 48.632 20.3695L43.9355 37.2105L39.081 45.5187L44 46.421V53L12.0645 53V46.421L16.9212 45.5224L12.0645 37.2105L7.36805 20.3695C7.33392 20.3799 7.29961 20.3899 7.26513 20.3994C7.20478 20.416 7.1439 20.4313 7.08252 20.4451C6.79599 20.5098 6.49857 20.5439 6.19355 20.5439C3.87752 20.5439 2 18.5802 2 16.1579C2 13.7356 3.87752 11.7719 6.19355 11.7719C8.50958 11.7719 10.3871 13.7356 10.3871 16.1579C10.3871 17.1674 10.061 18.0972 9.51303 18.8384C9.43124 18.9491 9.34451 19.0555 9.25318 19.1573C9.18684 19.2313 9.11807 19.3029 9.04701 19.372L18.0624 27.5614L19.9325 11.7387ZM10.6656 23.8859L16.5801 29.2585C17.1997 29.8213 18.0746 29.9865 18.8507 29.6872C19.6269 29.3878 20.1756 28.6735 20.2749 27.8334L21.6218 16.4377L25.9528 26.7051C26.3047 27.5392 27.1096 28.0797 28 28.0797C28.8904 28.0797 29.6953 27.5392 30.0472 26.7051L34.3782 16.4377L35.7251 27.8334C35.8244 28.6735 36.3731 29.3878 37.1493 29.6872C37.9254 29.9865 38.8003 29.8213 39.4199 29.2585L45.3344 23.8859L41.8717 36.3027L37.1665 44.3554C36.7923 44.9959 36.7499 45.783 37.0532 46.4615C37.3565 47.14 37.9668 47.6236 38.6865 47.7556L41.7714 48.3215V50.7273L14.2931 50.7273V48.3185L17.319 47.7587C18.0379 47.6257 18.6471 47.1418 18.9497 46.4636C19.2522 45.7854 19.2096 44.9991 18.8356 44.3591L14.1283 36.3027L10.6656 23.8859ZM7.19788 18.1034C7.28739 17.9677 7.39172 17.8412 7.50978 17.7265C7.90424 17.3432 8.15853 16.7895 8.15853 16.1579C8.15853 14.9364 7.22608 14.0447 6.19355 14.0447C5.16102 14.0447 4.22857 14.9364 4.22857 16.1579C4.22857 17.3794 5.16102 18.2711 6.19355 18.2711C6.38265 18.2711 6.56206 18.2431 6.73038 18.1918C6.88389 18.1451 7.04061 18.1157 7.19788 18.1034ZM48.8021 18.1034C48.9594 18.1157 49.1161 18.1451 49.2696 18.1918C49.4379 18.2431 49.6174 18.2711 49.8064 18.2711C50.839 18.2711 51.7714 17.3794 51.7714 16.1579C51.7714 14.9364 50.839 14.0447 49.8064 14.0447C48.7739 14.0447 47.8415 14.9364 47.8415 16.1579C47.8415 16.7895 48.0958 17.3432 48.4902 17.7265C48.6083 17.8412 48.7126 17.9677 48.8021 18.1034ZM35.3003 9.60433C35.4546 9.54678 35.6177 9.50587 35.7876 9.48393C36.7158 9.36408 37.5134 8.50989 37.5134 7.38596C37.5134 6.16443 36.5809 5.27273 35.5484 5.27273C34.5159 5.27273 33.5834 6.16443 33.5834 7.38596C33.5834 8.31673 34.1367 9.07534 34.861 9.36676C35.0169 9.42951 35.1641 9.50943 35.3003 9.60433Z" fill="#3E3F4F"/>
</svg>
