<svg width="56" height="56" viewBox="0 0 56 56" fill="none" xmlns="http://www.w3.org/2000/svg">
<path d="M9 5H18.7436V10.434H22.641V5H33.359V10.434H37.2564V5H47V13.1509L39.2051 18.5849L41.1538 36H14.8462L16.7949 18.5849L9 13.1509V5Z" fill="white"/>
<path d="M14.8462 39H41.1538L47 45.7547V53H9V45.7547L14.8462 39Z" fill="white"/>
<path fill-rule="evenodd" clip-rule="evenodd" d="M18.7436 12.834C17.404 12.834 16.3181 11.7594 16.3181 10.434V7.4H11.4255V11.906L18.1919 16.6229C18.9198 17.1304 19.3082 17.9918 19.2036 18.8668L17.5 33.5H38.5L36.7964 18.8668C36.6918 17.9918 37.0802 17.1304 37.8081 16.6229L44.5745 11.906V7.4H39.6819V10.434C39.6819 11.7594 38.596 12.834 37.2564 12.834H33.359C32.0194 12.834 30.9334 11.7594 30.9334 10.434V7.4H25.0666V10.434C25.0666 11.7594 23.9806 12.834 22.641 12.834H18.7436ZM22.641 5H33.359V10.434H37.2564V5H47V13.1509L39.2051 18.5849L41.1538 36H14.8462L16.7949 18.5849L9 13.1509V5H18.7436V10.434H22.641V5ZM16 41.5L11.4255 46.5953V50.6H44.5745V46.5953L40 41.5H16ZM41.1538 39H14.8462L9 45.7547V53H47V45.7547L41.1538 39Z" fill="#3E3F4F"/>
</svg>
